<?xml version="1.0" encoding="UTF-8" standalone="no"?>
<svg
   xmlns:dc="http://purl.org/dc/elements/1.1/"
   xmlns:cc="http://creativecommons.org/ns#"
   xmlns:rdf="http://www.w3.org/1999/02/22-rdf-syntax-ns#"
   xmlns:svg="http://www.w3.org/2000/svg"
   xmlns="http://www.w3.org/2000/svg"
   xmlns:sodipodi="http://sodipodi.sourceforge.net/DTD/sodipodi-0.dtd"
   xmlns:inkscape="http://www.inkscape.org/namespaces/inkscape"
   width="370.02206pt"
   height="369.88919pt"
   viewBox="0 0 370.02206 369.88919"
   version="1.1"
   id="svg352"
   sodipodi:docname="intech logo.svg"
   inkscape:version="1.0.1 (3bc2e813f5, 2020-09-07, custom)">
  <metadata
     id="metadata358">
    <rdf:RDF>
      <cc:Work
         rdf:about="">
        <dc:format>image/svg+xml</dc:format>
        <dc:type
           rdf:resource="http://purl.org/dc/dcmitype/StillImage" />
        <dc:title></dc:title>
      </cc:Work>
    </rdf:RDF>
  </metadata>
  <defs
     id="defs356" />
  <sodipodi:namedview
     pagecolor="#ffffff"
     bordercolor="#666666"
     borderopacity="1"
     objecttolerance="10"
     gridtolerance="10"
     guidetolerance="10"
     inkscape:pageopacity="0"
     inkscape:pageshadow="2"
     inkscape:window-width="1366"
     inkscape:window-height="706"
     id="namedview354"
     showgrid="false"
     inkscape:pagecheckerboard="true"
     fit-margin-top="0"
     fit-margin-left="0"
     fit-margin-right="0"
     fit-margin-bottom="0"
     inkscape:zoom="0.70977509"
     inkscape:cx="292.98898"
     inkscape:cy="267.65162"
     inkscape:window-x="0"
     inkscape:window-y="0"
     inkscape:window-maximized="1"
     inkscape:current-layer="svg352" />
  <g
     id="#23232323"
     transform="translate(-28.993313,-61.082274)">
    <path
       fill="#232323"
       opacity="0.14"
       d="M 0,0 H 13.49 C 9.12,3.56 4.51,6.82 0,10.19 Z"
       id="path217" />
  </g>
  <g
     id="#15151515"
     transform="translate(-28.993313,-61.082274)">
    <path
       fill="#151515"
       opacity="0.08"
       d="M 13.49,0 H 29.45 C 20.83,8.91 9.5,14.54 0,22.38 V 10.19 C 4.51,6.82 9.12,3.56 13.49,0 Z"
       id="path220" />
  </g>
  <g
     id="g441"
     transform="translate(-28.993313,-61.082274)">
    <g
       id="#ffffffff">
      <path
         fill="#ffffff"
         opacity="1"
         d="m 209.96,61.1 c 23.79,-0.32 47.71,3.69 69.94,12.25 25.75,9.82 49.27,25.45 68.16,45.53 24.35,25.45 41.19,58.03 47.68,92.67 9.19,47.21 -1.19,97.82 -28.23,137.6 -25.05,37.28 -64.12,64.82 -107.62,75.97 -25,6.45 -51.35,7.63 -76.8,3.23 C 151.6,423.06 121.57,409.42 96.87,389.19 80.84,376.15 67.12,360.33 56.3,342.74 36.76,310.99 27.17,273.24 29.28,236.01 31.77,188.37 53.45,141.95 88.89,109.92 121.5,79.57 165.5,62.25 209.96,61.1 m -77.82,85.79 c -1.92,0.38 -3.46,1.64 -5.03,2.72 14.95,-3.87 30.58,-3.25 45.84,-2.13 12.94,0.8 25.79,4.67 36.63,11.87 14.79,9.75 28.33,21.44 44,29.85 -0.05,0.47 -0.14,1.43 -0.19,1.91 -1.23,-0.25 -2.45,-0.5 -3.67,-0.75 -22.81,-10.77 -46.62,-20.34 -71.79,-23.65 -11.28,-0.62 -22.69,-0.72 -33.89,0.95 -15.82,2.87 -30.69,9.18 -45.54,15.13 -1.68,0.74 -3.1,1.93 -4.52,3.07 3.56,-0.59 6.76,-2.36 10.12,-3.58 15.07,-5.89 30.49,-11.81 46.8,-12.81 11.77,-0.56 23.65,-0.42 35.21,2.06 21.61,4.24 41.75,13.45 61.73,22.4 -0.46,0.26 -1.38,0.79 -1.84,1.06 -9.27,2.41 -18.79,0.72 -28.14,-0.15 -11.55,-3.23 -23.21,-6.07 -34.99,-8.34 -9.86,-1.93 -19.95,-0.85 -29.89,-1.72 -10.79,0.96 -21.49,3.03 -31.94,5.88 -8.66,2.55 -16.88,6.39 -24.87,10.54 -3.84,1.97 -7.89,3.74 -11.07,6.74 11.7,-5.79 23.26,-12.25 36.04,-15.41 10.01,-2.49 20.22,-4.68 30.58,-4.87 2.68,6.77 6.74,12.89 9.54,19.6 -4.4,-0.47 -8.84,-0.54 -13.26,-0.46 -12.49,0.49 -25.42,0.87 -36.93,6.31 -16.08,7.6 -30.61,18.31 -43.11,30.92 -5.99,5.91 -12.21,11.61 -17.76,17.95 4.4,-0.43 6.84,-4.27 9.72,-7.11 14.15,-14 28.38,-28.58 46.32,-37.72 12.81,-6.58 27.52,-7.24 41.62,-7.28 4.82,5.56 9.62,11.13 14.64,16.51 -0.03,0.36 -0.09,1.07 -0.11,1.43 -16.83,4.58 -33.54,9.62 -50.35,14.25 -0.02,23.85 -0.15,47.7 0.06,71.54 8.17,1.84 16.29,3.91 24.49,5.64 -1.32,0.7 -2.63,1.43 -3.89,2.25 -3.46,0.72 -6.94,2.38 -10.1,4.12 l -0.47,-0.31 c -5.17,2.37 -10.39,4.8 -15.89,6.3 14.13,8.97 28.31,18.35 44.11,24.13 l -0.26,0.29 c 5.2,1.77 10.34,3.95 15.83,4.66 l 0.1,0.44 c 4.23,0.63 8.51,0.6 12.77,0.5 l -0.21,-0.35 c 7.31,-8.28 14.39,-16.76 21.54,-25.18 1.18,-1.49 3.15,-1.7 4.86,-2.17 48.61,-6.42 97.15,-13.41 145.78,-19.66 0.31,-2.1 0.45,-4.21 0.39,-6.32 -0.19,-20.17 0.25,-40.35 -0.22,-60.51 -19.02,-3.87 -37.99,-7.99 -57,-11.9 1.22,-8.18 1.82,-16.43 2.47,-24.67 9.8,-3.56 19.3,-8.37 27.24,-15.19 2.68,-3.2 5.92,-5.79 9.52,-7.88 0.83,-0.57 1.66,-1.16 2.48,-1.75 l -1.06,-0.93 c -0.15,-1.34 -0.36,-2.67 -0.43,-4.01 0.54,-1.38 1.81,-2.33 2.68,-3.5 0.19,-0.25 0.58,-0.75 0.78,-1 -1.8,-4.88 -4.01,-9.6 -5.83,-14.48 -2.5,0.02 -5.05,-0.23 -7.5,0.39 -0.79,0.9 -1.59,1.8 -2.39,2.69 0.06,0.6 0.18,1.8 0.23,2.39 -2.85,2.15 -1.46,6.15 -2.92,9.06 -6.87,-4.74 -13.34,-10.09 -20.61,-14.21 -3.58,-2.03 -7.65,-3.56 -11.83,-2.89 -3.54,-0.26 -7.2,0.01 -10.11,2.26 -1.3,0.83 -2.79,1.49 -3.68,2.81 -5.19,3.23 -8.58,8.54 -12.32,13.22 -1.99,2.97 -4.67,5.67 -5.51,9.23 -11.23,-6.12 -21.42,-13.89 -31.74,-21.39 -8.43,-6.08 -16.89,-12.56 -26.92,-15.78 -8.17,-2.96 -16.86,-4.18 -25.51,-4.46 -12.94,-0.66 -26.07,-1.26 -38.83,1.45 z"
         id="path223" />
      <path
         fill="#ffffff"
         opacity="1"
         d="m 311.5,186.83 c 6.62,-0.17 13.25,0.11 19.86,-0.27 -2.13,1.05 -4.19,2.22 -6.16,3.54 -1.41,0.93 -2.81,1.86 -4.22,2.79 -5.68,1.3 -11.31,2.94 -17.15,3.43 -10.3,0.24 -20.9,1.32 -31.01,-1.15 4.05,1.05 8.24,1.33 12.42,1.32 4.92,0.03 9.85,0.2 14.77,-0.19 0.39,-0.96 0.8,-1.92 1.24,-2.87 1.94,-3.95 5.86,-6.44 10.25,-6.6 z"
         id="path225" />
      <path
         fill="#ffffff"
         opacity="1"
         d="m 296.77,205.51 c 8.26,-3.12 16.85,-5.78 24.16,-10.88 -6.06,7.52 -15.61,10.81 -24.38,14.02 0.05,-0.78 0.16,-2.36 0.22,-3.14 z"
         id="path227" />
    </g>
    <g
       id="#fe7725ff">
      <path
         fill="#fe7725"
         opacity="1"
         d="m 132.14,146.89 c 12.76,-2.71 25.89,-2.11 38.83,-1.45 8.65,0.28 17.34,1.5 25.51,4.46 10.03,3.22 18.49,9.7 26.92,15.78 10.32,7.5 20.51,15.27 31.74,21.39 5.7,3.08 11.47,6.17 17.68,8.1 10.11,2.47 20.71,1.39 31.01,1.15 0.78,0.44 2.32,1.32 3.1,1.76 -10.36,0.46 -20.75,0.75 -31.11,0.1 l -0.74,-0.13 c -7.63,-1.7 -14.71,-5.07 -21.5,-8.85 -15.67,-8.41 -29.21,-20.1 -44,-29.85 -10.84,-7.2 -23.69,-11.07 -36.63,-11.87 -15.26,-1.12 -30.89,-1.74 -45.84,2.13 1.57,-1.08 3.11,-2.34 5.03,-2.72 z"
         id="path230" />
    </g>
    <g
       id="#7d7d7dff">
      <path
         fill="#7d7d7d"
         opacity="1"
         d="m 286.76,159.55 c 4.18,-0.67 8.25,0.86 11.83,2.89 7.27,4.12 13.74,9.47 20.61,14.21 1.31,1.16 3.56,1.91 3.49,4.01 3.82,0.32 6.69,3.11 10.33,3.98 0.39,0.12 1.17,0.35 1.56,0.47 l 1.06,0.93 c -0.82,0.59 -1.65,1.18 -2.48,1.75 0.09,-0.4 0.28,-1.21 0.38,-1.61 -0.54,0.09 -1.63,0.28 -2.18,0.38 -6.61,0.38 -13.24,0.1 -19.86,0.27 -5.83,-0.37 -7.73,-6.41 -11.72,-9.61 -5.59,-4.87 -9.59,-11.18 -13.02,-17.67 z"
         id="path233" />
    </g>
    <g
       id="#878787ff">
      <path
         fill="#878787"
         opacity="1"
         d="m 276.65,161.81 c 2.91,-2.25 6.57,-2.52 10.11,-2.26 3.43,6.49 7.43,12.8 13.02,17.67 3.99,3.2 5.89,9.24 11.72,9.61 -4.39,0.16 -8.31,2.65 -10.25,6.6 -4.24,-3.63 -8.1,-7.66 -11.55,-12.04 -5.09,-5.91 -12.22,-11.27 -13.05,-19.58 z"
         id="path236" />
      <path
         fill="#878787"
         opacity="1"
         d="m 122.6,325.61 c 3.16,-1.74 6.64,-3.4 10.1,-4.12 10,6.74 18.26,15.62 25.93,24.84 3.11,4.37 6.31,8.97 7.29,14.35 -5.49,-0.71 -10.63,-2.89 -15.83,-4.66 l 0.26,-0.29 c 0.41,-0.47 1.23,-1.4 1.64,-1.87 -2.53,-4.28 -6.23,-7.62 -9.75,-11.05 -3.43,-3.28 -5.81,-7.55 -9.64,-10.41 -3.2,-2.45 -6.65,-4.56 -10,-6.79 z"
         id="path238" />
    </g>
    <g
       id="#8f8f8fff">
      <path
         fill="#8f8f8f"
         opacity="1"
         d="m 272.97,164.62 c 0.89,-1.32 2.38,-1.98 3.68,-2.81 0.83,8.31 7.96,13.67 13.05,19.58 3.45,4.38 7.31,8.41 11.55,12.04 -0.44,0.95 -0.85,1.91 -1.24,2.87 -4.92,0.39 -9.85,0.22 -14.77,0.19 -7.88,-6.82 -14.05,-15.53 -17.96,-25.18 2.15,-2 4.06,-4.24 5.69,-6.69 z"
         id="path241" />
    </g>
    <g
       id="#484848ff">
      <path
         fill="#484848"
         opacity="1"
         d="m 324.28,162.51 c 2.45,-0.62 5,-0.37 7.5,-0.39 1.82,4.88 4.03,9.6 5.83,14.48 -0.2,0.25 -0.59,0.75 -0.78,1 -3.12,-0.9 -6.37,-0.99 -9.59,-1.07 -0.72,-4.72 -0.89,-9.63 -2.96,-14.02 m 1.95,0.67 c -1.5,2.99 3.3,0.25 0,0 m 1.84,-0.06 c -1.57,3.06 3.28,0.1 0,0 m 1.89,0.23 c -1.48,3.06 3.27,0.15 0,0 z"
         id="path244" />
    </g>
    <g
       id="#a6a6a6ff">
      <path
         fill="#a6a6a6"
         opacity="1"
         d="m 321.89,165.2 c 0.8,-0.89 1.6,-1.79 2.39,-2.69 2.07,4.39 2.24,9.3 2.96,14.02 -0.56,0.83 -1.12,1.67 -1.67,2.5 -1.09,-3.69 -1.53,-7.52 -1.79,-11.34 -0.3,0.39 -0.91,1.16 -1.21,1.55 -0.11,-0.41 -0.33,-1.23 -0.45,-1.65 -0.05,-0.59 -0.17,-1.79 -0.23,-2.39 z"
         id="path247" />
    </g>
    <g
       id="#c0972aff">
      <path
         fill="#c0972a"
         opacity="1"
         d="m 326.23,163.18 c 3.3,0.25 -1.5,2.99 0,0 z"
         id="path250" />
    </g>
    <g
       id="#e3ae21ff">
      <path
         fill="#e3ae21"
         opacity="1"
         d="m 328.07,163.12 c 3.28,0.1 -1.57,3.06 0,0 z"
         id="path253" />
    </g>
    <g
       id="#d7a725ff">
      <path
         fill="#d7a725"
         opacity="1"
         d="m 329.96,163.35 c 3.27,0.15 -1.48,3.06 0,0 z"
         id="path256" />
    </g>
    <g
       id="#979797ff">
      <path
         fill="#979797"
         opacity="1"
         d="m 260.65,177.84 c 3.74,-4.68 7.13,-9.99 12.32,-13.22 -1.63,2.45 -3.54,4.69 -5.69,6.69 3.91,9.65 10.08,18.36 17.96,25.18 -4.18,0.01 -8.37,-0.27 -12.42,-1.32 -6.21,-1.93 -11.98,-5.02 -17.68,-8.1 0.84,-3.56 3.52,-6.26 5.51,-9.23 z"
         id="path259" />
    </g>
    <g
       id="#018000ff">
      <path
         fill="#018000"
         opacity="1"
         d="m 144.04,167.66 c 11.2,-1.67 22.61,-1.57 33.89,-0.95 25.17,3.31 48.98,12.88 71.79,23.65 8.15,3.4 16.79,5.61 25.36,7.69 l 0.74,0.13 c 8.29,1.55 16.75,1.07 25.14,1.01 2.28,-0.06 4.56,-0.35 6.79,-0.88 2.56,-0.61 4.99,-1.74 7.64,-1.94 -4.63,2.39 -9.63,3.91 -14.52,5.64 -11.97,0.79 -24.21,1.03 -35.79,-2.59 -5.78,-1.74 -11.7,-3.05 -17.24,-5.49 -19.98,-8.95 -40.12,-18.16 -61.73,-22.4 -11.56,-2.48 -23.44,-2.62 -35.21,-2.06 -16.31,1 -31.73,6.92 -46.8,12.81 -3.36,1.22 -6.56,2.99 -10.12,3.58 1.42,-1.14 2.84,-2.33 4.52,-3.07 14.85,-5.95 29.72,-12.26 45.54,-15.13 z"
         id="path262" />
    </g>
    <g
       id="#dadadaff">
      <path
         fill="#dadada"
         opacity="1"
         d="m 319.2,176.65 c 1.46,-2.91 0.07,-6.91 2.92,-9.06 0.12,0.42 0.34,1.24 0.45,1.65 0.93,3.74 -0.47,8.63 2.73,11.45 1.77,0.12 3.55,0.06 5.32,0.01 0.8,1.31 1.59,2.62 2.4,3.94 -3.64,-0.87 -6.51,-3.66 -10.33,-3.98 0.07,-2.1 -2.18,-2.85 -3.49,-4.01 z"
         id="path265" />
    </g>
    <g
       id="#7f7f7fff">
      <path
         fill="#7f7f7f"
         opacity="1"
         d="m 322.57,169.24 c 0.3,-0.39 0.91,-1.16 1.21,-1.55 0.26,3.82 0.7,7.65 1.79,11.34 0.55,-0.83 1.11,-1.67 1.67,-2.5 3.22,0.08 6.47,0.17 9.59,1.07 -0.87,1.17 -2.14,2.12 -2.68,3.5 0.07,1.34 0.28,2.67 0.43,4.01 -0.39,-0.12 -1.17,-0.35 -1.56,-0.47 -0.81,-1.32 -1.6,-2.63 -2.4,-3.94 -1.77,0.05 -3.55,0.11 -5.32,-0.01 -3.2,-2.82 -1.8,-7.71 -2.73,-11.45 z"
         id="path268" />
      <path
         fill="#7f7f7f"
         opacity="1"
         d="m 106.24,331.6 c 5.5,-1.5 10.72,-3.93 15.89,-6.3 l 0.47,0.31 c 3.35,2.23 6.8,4.34 10,6.79 3.83,2.86 6.21,7.13 9.64,10.41 3.52,3.43 7.22,6.77 9.75,11.05 -0.41,0.47 -1.23,1.4 -1.64,1.87 -15.8,-5.78 -29.98,-15.16 -44.11,-24.13 z"
         id="path270" />
    </g>
    <g
       id="#0203ffff">
      <path
         fill="#0203ff"
         opacity="1"
         d="m 121.04,190.66 c 10.45,-2.85 21.15,-4.92 31.94,-5.88 9.94,0.87 20.03,-0.21 29.89,1.72 11.78,2.27 23.44,5.11 34.99,8.34 8.37,2.76 16.46,6.35 24.97,8.67 9.03,2.12 18.29,3.4 27.58,3.07 10.29,0.25 20.93,-0.4 30.46,-4.57 4.89,-1.73 9.89,-3.25 14.52,-5.64 0.41,-0.36 1.25,-1.07 1.67,-1.42 l 0.76,0.45 c 0.38,-0.26 1.14,-0.77 1.52,-1.03 0.41,-0.37 1.23,-1.11 1.64,-1.48 1.41,-0.93 2.81,-1.86 4.22,-2.79 -1.63,1.31 -2.98,2.91 -4.27,4.53 -7.31,5.1 -15.9,7.76 -24.16,10.88 -14.5,4.74 -30.01,4.59 -45.01,2.9 -9.11,-1.02 -17.91,-3.72 -26.42,-7.08 -7.51,-2.87 -15.23,-5.19 -23.04,-7.1 -6.09,-1.39 -12.11,-3.07 -18.23,-4.3 -10.64,-2.12 -21.53,-2.56 -32.35,-2.27 -10.36,0.19 -20.57,2.38 -30.58,4.87 -12.78,3.16 -24.34,9.62 -36.04,15.41 3.18,-3 7.23,-4.77 11.07,-6.74 7.99,-4.15 16.21,-7.99 24.87,-10.54 z"
         id="path273" />
    </g>
    <g
       id="#784420ff">
      <path
         fill="#784420"
         opacity="1"
         d="m 331.36,186.56 c 0.55,-0.1 1.64,-0.29 2.18,-0.38 -0.1,0.4 -0.29,1.21 -0.38,1.61 -3.6,2.09 -6.84,4.68 -9.52,7.88 -7.94,6.82 -17.44,11.63 -27.24,15.19 -4.37,1.7 -8.83,3.28 -13.47,4.02 -19.66,2.37 -39.5,1.94 -59.26,2.15 -7.96,-0.43 -15.9,-1 -23.84,-1.65 -17.32,-1.8 -34.49,-5.5 -51.97,-5.51 -14.1,0.04 -28.81,0.7 -41.62,7.28 -17.94,9.14 -32.17,23.72 -46.32,37.72 -2.88,2.84 -5.32,6.68 -9.72,7.11 5.55,-6.34 11.77,-12.04 17.76,-17.95 12.5,-12.61 27.03,-23.32 43.11,-30.92 11.51,-5.44 24.44,-5.82 36.93,-6.31 4.42,-0.08 8.86,-0.01 13.26,0.46 2.2,0.2 4.4,0.38 6.6,0.6 7.57,0.93 15.14,2 22.73,2.76 10.29,1.63 20.69,2.52 31.1,3 11.62,0.49 23.26,0.24 34.89,0.03 13.38,-0.58 27.23,-0.25 39.97,-5 8.77,-3.21 18.32,-6.5 24.38,-14.02 1.29,-1.62 2.64,-3.22 4.27,-4.53 1.97,-1.32 4.03,-2.49 6.16,-3.54 z"
         id="path276" />
    </g>
    <g
       id="#c6c6c6ff">
      <path
         fill="#c6c6c6"
         opacity="1"
         d="m 151.72,187.66 c 10.82,-0.29 21.71,0.15 32.35,2.27 -1.17,0.18 -2.33,0.4 -3.5,0.61 -1.47,4.18 -4.45,7.56 -6.84,11.22 -1.56,2.38 -3.53,4.46 -5.87,6.1 -2.2,-0.22 -4.4,-0.4 -6.6,-0.6 -2.8,-6.71 -6.86,-12.83 -9.54,-19.6 z"
         id="path279" />
    </g>
    <g
       id="#a1a1a1ff">
      <path
         fill="#a1a1a1"
         opacity="1"
         d="m 253.58,189.2 c 6.79,3.78 13.87,7.15 21.5,8.85 -8.57,-2.08 -17.21,-4.29 -25.36,-7.69 1.22,0.25 2.44,0.5 3.67,0.75 0.05,-0.48 0.14,-1.44 0.19,-1.91 z"
         id="path282" />
      <path
         fill="#a1a1a1"
         opacity="1"
         d="m 282.93,214.88 c 4.64,-0.74 9.1,-2.32 13.47,-4.02 -0.65,8.24 -1.25,16.49 -2.47,24.67 -12.54,-2.67 -25.13,-5.11 -37.63,-7.96 -1.39,-3.55 -3.32,-7.21 -6.72,-9.19 -8.56,-1.39 -17.4,0.64 -25.91,-1.35 19.76,-0.21 39.6,0.22 59.26,-2.15 z"
         id="path284" />
    </g>
    <g
       id="#bdbdbdff">
      <path
         fill="#bdbdbd"
         opacity="1"
         d="m 180.57,190.54 c 1.17,-0.21 2.33,-0.43 3.5,-0.61 6.12,1.23 12.14,2.91 18.23,4.3 -1.93,4.98 -2.41,10.47 -4.67,15.29 -2.3,0.59 -4.68,0.86 -7.04,1.1 -7.59,-0.76 -15.16,-1.83 -22.73,-2.76 2.34,-1.64 4.31,-3.72 5.87,-6.1 2.39,-3.66 5.37,-7.04 6.84,-11.22 z"
         id="path287" />
      <path
         fill="#bdbdbd"
         opacity="1"
         d="m 275.82,198.18 c 10.36,0.65 20.75,0.36 31.11,-0.1 l 0.82,0.23 c -2.23,0.53 -4.51,0.82 -6.79,0.88 -8.39,0.06 -16.85,0.54 -25.14,-1.01 z"
         id="path289" />
      <path
         fill="#bdbdbd"
         opacity="1"
         d="m 147.86,209.87 c 17.48,0.01 34.65,3.71 51.97,5.51 l 1.07,1.32 c -12.79,3.87 -25.67,7.42 -38.51,11.11 0.02,-0.36 0.08,-1.07 0.11,-1.43 -5.02,-5.38 -9.82,-10.95 -14.64,-16.51 z"
         id="path291" />
    </g>
    <g
       id="#f5a479ff">
      <path
         fill="#f5a479"
         opacity="1"
         d="m 303.83,196.32 c 5.84,-0.49 11.47,-2.13 17.15,-3.43 -0.41,0.37 -1.23,1.11 -1.64,1.48 -0.57,0.15 -1.71,0.43 -2.28,0.58 -0.42,0.35 -1.26,1.06 -1.67,1.42 -2.65,0.2 -5.08,1.33 -7.64,1.94 l -0.82,-0.23 c -0.78,-0.44 -2.32,-1.32 -3.1,-1.76 z"
         id="path294" />
    </g>
    <g
       id="#a2a2a3ff">
      <path
         fill="#a2a2a3"
         opacity="1"
         d="m 247.84,193.93 c 5.54,2.44 11.46,3.75 17.24,5.49 2.43,1.83 4.3,4.28 5.33,7.16 -9.29,0.33 -18.55,-0.95 -27.58,-3.07 -8.51,-2.32 -16.6,-5.91 -24.97,-8.67 9.35,0.87 18.87,2.56 28.14,0.15 0.46,-0.27 1.38,-0.8 1.84,-1.06 z"
         id="path297" />
    </g>
    <g
       id="#8a7152ff">
      <path
         fill="#8a7152"
         opacity="1"
         d="m 317.06,194.95 c 0.57,-0.15 1.71,-0.43 2.28,-0.58 -0.38,0.26 -1.14,0.77 -1.52,1.03 z"
         id="path300" />
    </g>
    <g
       id="#b3b3b3ff">
      <path
         fill="#b3b3b3"
         opacity="1"
         d="m 202.3,194.23 c 7.81,1.91 15.53,4.23 23.04,7.1 0.58,3.73 0.74,7.51 0.48,11.28 -1.37,0.35 -2.75,0.69 -4.13,1.01 -10.41,-0.48 -20.81,-1.37 -31.1,-3 2.36,-0.24 4.74,-0.51 7.04,-1.1 2.26,-4.82 2.74,-10.31 4.67,-15.29 z"
         id="path303" />
    </g>
    <g
       id="#717750ff">
      <path
         fill="#717750"
         opacity="1"
         d="m 315.39,196.37 c 0.41,-0.36 1.25,-1.07 1.67,-1.42 -0.42,0.35 -1.26,1.06 -1.67,1.42 z"
         id="path306" />
    </g>
    <g
       id="#999999ff">
      <path
         fill="#999999"
         opacity="1"
         d="m 265.08,199.42 c 11.58,3.62 23.82,3.38 35.79,2.59 -9.53,4.17 -20.17,4.82 -30.46,4.57 -1.03,-2.88 -2.9,-5.33 -5.33,-7.16 z"
         id="path309" />
    </g>
    <g
       id="#aaaaaaff">
      <path
         fill="#aaaaaa"
         opacity="1"
         d="m 225.34,201.33 c 8.51,3.36 17.31,6.06 26.42,7.08 2.08,1.26 3.86,2.96 4.82,5.24 -11.63,0.21 -23.27,0.46 -34.89,-0.03 1.38,-0.32 2.76,-0.66 4.13,-1.01 0.26,-3.77 0.1,-7.55 -0.48,-11.28 z"
         id="path312" />
    </g>
    <g
       id="#9e9e9fff">
      <path
         fill="#9e9e9f"
         opacity="1"
         d="m 251.76,208.41 c 15,1.69 30.51,1.84 45.01,-2.9 -0.06,0.78 -0.17,2.36 -0.22,3.14 -12.74,4.75 -26.59,4.42 -39.97,5 -0.96,-2.28 -2.74,-3.98 -4.82,-5.24 z"
         id="path315" />
    </g>
    <g
       id="#a9a9a9ff">
      <path
         fill="#a9a9a9"
         opacity="1"
         d="m 199.83,215.38 c 7.94,0.65 15.88,1.22 23.84,1.65 8.51,1.99 17.35,-0.04 25.91,1.35 3.4,1.98 5.33,5.64 6.72,9.19 -18.13,-3.41 -36.06,-7.97 -54.28,-10.92 0.03,39.16 -0.14,78.33 0.09,117.49 h -0.41 c 0.16,-38.77 0.03,-77.54 0.06,-116.31 -0.21,-0.28 -0.65,-0.85 -0.86,-1.13 z"
         id="path318" />
    </g>
    <g
       id="#2279c5ff">
      <path
         fill="#2279c5"
         opacity="1"
         d="m 162.39,227.81 c 12.84,-3.69 25.72,-7.24 38.51,-11.11 0.21,0.28 0.65,0.85 0.86,1.13 -0.03,38.77 0.1,77.54 -0.06,116.31 -6,-0.66 -11.77,-2.49 -17.64,-3.79 -9.8,-2.21 -19.55,-4.66 -29.37,-6.8 -5.99,-1.63 -12.07,-2.89 -18.1,-4.31 -8.2,-1.73 -16.32,-3.8 -24.49,-5.64 -0.21,-23.84 -0.08,-47.69 -0.06,-71.54 16.81,-4.63 33.52,-9.67 50.35,-14.25 m -34.08,29.49 c -0.03,1.53 -0.05,3.07 -0.07,4.61 1.55,-0.18 3.1,-0.35 4.66,-0.52 0.26,13.29 -0.18,26.62 -0.49,39.91 -1.58,-0.11 -3.16,-0.23 -4.73,-0.33 0.05,1.58 0.1,3.18 0.17,4.77 5.22,0.83 10.32,2.41 15.61,2.82 0.01,-1.77 -0.03,-3.52 -0.13,-5.27 -1.83,-0.33 -3.64,-0.69 -5.44,-1.1 0.1,-13.92 0.56,-27.83 0.53,-41.74 1.95,-0.45 3.9,-0.89 5.85,-1.34 0.03,-1.81 0.05,-3.62 0.07,-5.43 -5.38,1.06 -10.74,2.22 -16.03,3.62 m 30.89,21.8 c -0.14,-1.27 -0.28,-2.53 -0.42,-3.8 -1.63,0.24 -3.27,0.48 -4.91,0.72 -0.26,11.72 -0.52,23.45 -0.44,35.18 1.66,0.46 3.39,1.08 5.14,0.66 0.01,-8.97 -0.13,-17.97 0.49,-26.9 3.67,-3.94 9.51,-6.88 14.9,-4.9 3.16,1.22 3.54,4.98 3.75,7.9 0.41,9.63 -0.63,19.28 -0.09,28.91 2.6,0.55 5.23,1.26 7.92,0.98 -0.17,-9.94 0.35,-19.88 0.46,-29.82 -0.05,-4.28 -0.67,-9.03 -3.73,-12.27 -3.32,-3.55 -8.78,-3.87 -13.21,-2.64 -3.84,0.92 -6.89,3.53 -9.86,5.98 z"
         id="path321" />
      <path
         fill="#2279c5"
         opacity="1"
         d="m 209.12,240.75 c 4.42,0.2 8.65,1.57 12.97,2.39 9.23,2.02 18.54,3.66 27.72,5.93 0.01,2.58 -0.01,5.16 -0.07,7.75 -5.05,-0.65 -10.01,-1.87 -15.08,-2.28 -0.22,21.36 0.13,42.72 -0.01,64.08 -2.12,0.22 -4.24,0.36 -6.36,0.42 -0.02,-21.96 0.12,-43.93 -0.21,-65.89 -6.32,-1.04 -12.65,-2.02 -18.94,-3.22 -0.02,-3.06 -0.03,-6.12 -0.02,-9.18 z"
         id="path323" />
      <path
         fill="#2279c5"
         opacity="1"
         d="m 306.11,256.04 c 0.98,0.26 1.95,0.59 2.89,0.99 0.65,5.98 0.19,12.02 0.42,18.03 2.15,-1.54 4.17,-4.41 7.17,-3.61 4.38,1.35 4.82,6.62 5.34,10.46 0.55,8.74 0.42,17.53 0.4,26.29 -0.74,-0.06 -2.24,-0.17 -2.99,-0.23 0.04,-7.67 0.02,-15.33 -0.25,-22.99 -0.25,-2.41 -0.26,-5.25 -2.05,-7.09 -3.09,-2.2 -6.62,1.28 -7.4,4.14 -0.2,9.21 0.2,18.44 0.1,27.66 -1.16,0.03 -2.31,0.06 -3.47,0.1 -0.07,-13.92 -0.29,-27.85 -0.4,-41.77 0,-4 -0.41,-8.02 0.24,-11.98 z"
         id="path325" />
      <path
         fill="#2279c5"
         opacity="1"
         d="m 253.7,268.7 c 5.14,-4.78 14.5,-3.71 18.27,2.26 4.02,6.03 4.52,13.69 3.9,20.71 -7.75,-0.04 -15.5,-0.05 -23.25,0.19 -0.13,6.18 1.52,14 7.94,16.53 5.85,1.55 11.44,-1.96 15.14,-6.22 0,2.82 -0.01,5.65 -0.06,8.48 -5.07,4.05 -12.12,6.9 -18.46,4.14 -6.7,-2.58 -9.4,-10.11 -10.49,-16.63 -1.03,-10.04 -0.72,-21.96 7.01,-29.46 m 2.85,5.87 c -2.52,2.97 -3.73,6.83 -3.97,10.69 6.22,0.21 12.46,0.35 18.69,0.2 -0.26,-3.48 -0.73,-7.09 -2.64,-10.09 -2.68,-3.85 -8.87,-4.13 -12.08,-0.8 z"
         id="path327" />
      <path
         fill="#2279c5"
         opacity="1"
         d="m 287.27,271.22 c 3.32,-3.14 8.77,-2.49 12,0.44 3.17,1.66 1.75,5.64 1.85,8.5 -2.57,-2.27 -5.23,-5.63 -9.09,-4.92 -3.8,1.2 -5.07,5.57 -5.6,9.09 -0.65,5.65 -0.75,11.57 1.24,16.97 0.85,2.29 2.61,4.7 5.25,4.86 3.54,0.26 5.85,-2.82 8.41,-4.71 0.1,2.15 0.39,4.34 0.02,6.49 -2.33,2.59 -5.65,4.77 -9.29,4.26 -3.93,-0.21 -6.71,-3.59 -8.24,-6.91 -2.66,-6.56 -2.8,-13.84 -2.22,-20.8 0.68,-4.77 2.06,-9.86 5.67,-13.27 z"
         id="path329" />
    </g>
    <g
       id="#3ed2baff">
      <path
         fill="#3ed2ba"
         opacity="1"
         d="m 202.02,216.65 c 18.22,2.95 36.15,7.51 54.28,10.92 12.5,2.85 25.09,5.29 37.63,7.96 19.01,3.91 37.98,8.03 57,11.9 0.47,20.16 0.03,40.34 0.22,60.51 0.06,2.11 -0.08,4.22 -0.39,6.32 -48.63,6.25 -97.17,13.24 -145.78,19.66 -0.72,0.05 -2.15,0.16 -2.87,0.22 -0.23,-39.16 -0.06,-78.33 -0.09,-117.49 m 7.1,24.1 c -0.01,3.06 0,6.12 0.02,9.18 6.29,1.2 12.62,2.18 18.94,3.22 0.33,21.96 0.19,43.93 0.21,65.89 2.12,-0.06 4.24,-0.2 6.36,-0.42 0.14,-21.36 -0.21,-42.72 0.01,-64.08 5.07,0.41 10.03,1.63 15.08,2.28 0.06,-2.59 0.08,-5.17 0.07,-7.75 -9.18,-2.27 -18.49,-3.91 -27.72,-5.93 -4.32,-0.82 -8.55,-2.19 -12.97,-2.39 m 96.99,15.29 c -0.65,3.96 -0.24,7.98 -0.24,11.98 0.11,13.92 0.33,27.85 0.4,41.77 1.16,-0.04 2.31,-0.07 3.47,-0.1 0.1,-9.22 -0.3,-18.45 -0.1,-27.66 0.78,-2.86 4.31,-6.34 7.4,-4.14 1.79,1.84 1.8,4.68 2.05,7.09 0.27,7.66 0.29,15.32 0.25,22.99 0.75,0.06 2.25,0.17 2.99,0.23 0.02,-8.76 0.15,-17.55 -0.4,-26.29 -0.52,-3.84 -0.96,-9.11 -5.34,-10.46 -3,-0.8 -5.02,2.07 -7.17,3.61 -0.23,-6.01 0.23,-12.05 -0.42,-18.03 -0.94,-0.4 -1.91,-0.73 -2.89,-0.99 M 253.7,268.7 c -7.73,7.5 -8.04,19.42 -7.01,29.46 1.09,6.52 3.79,14.05 10.49,16.63 6.34,2.76 13.39,-0.09 18.46,-4.14 0.05,-2.83 0.06,-5.66 0.06,-8.48 -3.7,4.26 -9.29,7.77 -15.14,6.22 -6.42,-2.53 -8.07,-10.35 -7.94,-16.53 7.75,-0.24 15.5,-0.23 23.25,-0.19 0.62,-7.02 0.12,-14.68 -3.9,-20.71 -3.77,-5.97 -13.13,-7.04 -18.27,-2.26 m 33.57,2.52 c -3.61,3.41 -4.99,8.5 -5.67,13.27 -0.58,6.96 -0.44,14.24 2.22,20.8 1.53,3.32 4.31,6.7 8.24,6.91 3.64,0.51 6.96,-1.67 9.29,-4.26 0.37,-2.15 0.08,-4.34 -0.02,-6.49 -2.56,1.89 -4.87,4.97 -8.41,4.71 -2.64,-0.16 -4.4,-2.57 -5.25,-4.86 -1.99,-5.4 -1.89,-11.32 -1.24,-16.97 0.53,-3.52 1.8,-7.89 5.6,-9.09 3.86,-0.71 6.52,2.65 9.09,4.92 -0.1,-2.86 1.32,-6.84 -1.85,-8.5 -3.23,-2.93 -8.68,-3.58 -12,-0.44 m 47.11,2.13 c 0,2.09 0.01,4.19 0.02,6.29 1.62,0.18 3.24,0.37 4.88,0.57 -0.05,-1.99 -0.09,-3.98 -0.15,-5.96 -1.59,-0.3 -3.17,-0.6 -4.75,-0.9 m -1.92,32.7 c 0.75,-0.12 2.26,-0.38 3.01,-0.5 1.66,-4.69 3.55,-9.29 5.21,-13.97 -1.63,-0.01 -3.26,-0.02 -4.88,-0.02 -1.14,4.82 -2.49,9.6 -3.34,14.49 z"
         id="path332" />
      <path
         fill="#3ed2ba"
         opacity="1"
         d="m 128.31,257.3 c 5.29,-1.4 10.65,-2.56 16.03,-3.62 -0.02,1.81 -0.04,3.62 -0.07,5.43 -1.95,0.45 -3.9,0.89 -5.85,1.34 0.03,13.91 -0.43,27.82 -0.53,41.74 1.8,0.41 3.61,0.77 5.44,1.1 0.1,1.75 0.14,3.5 0.13,5.27 -5.29,-0.41 -10.39,-1.99 -15.61,-2.82 -0.07,-1.59 -0.12,-3.19 -0.17,-4.77 1.57,0.1 3.15,0.22 4.73,0.33 0.31,-13.29 0.75,-26.62 0.49,-39.91 -1.56,0.17 -3.11,0.34 -4.66,0.52 0.02,-1.54 0.04,-3.08 0.07,-4.61 z"
         id="path334" />
      <path
         fill="#3ed2ba"
         opacity="1"
         d="m 256.55,274.57 c 3.21,-3.33 9.4,-3.05 12.08,0.8 1.91,3 2.38,6.61 2.64,10.09 -6.23,0.15 -12.47,0.01 -18.69,-0.2 0.24,-3.86 1.45,-7.72 3.97,-10.69 z"
         id="path336" />
      <path
         fill="#3ed2ba"
         opacity="1"
         d="m 159.2,279.1 c 2.97,-2.45 6.02,-5.06 9.86,-5.98 4.43,-1.23 9.89,-0.91 13.21,2.64 3.06,3.24 3.68,7.99 3.73,12.27 -0.11,9.94 -0.63,19.88 -0.46,29.82 -2.69,0.28 -5.32,-0.43 -7.92,-0.98 -0.54,-9.63 0.5,-19.28 0.09,-28.91 -0.21,-2.92 -0.59,-6.68 -3.75,-7.9 -5.39,-1.98 -11.23,0.96 -14.9,4.9 -0.62,8.93 -0.48,17.93 -0.49,26.9 -1.75,0.42 -3.48,-0.2 -5.14,-0.66 -0.08,-11.73 0.18,-23.46 0.44,-35.18 1.64,-0.24 3.28,-0.48 4.91,-0.72 0.14,1.27 0.28,2.53 0.42,3.8 z"
         id="path338" />
    </g>
    <g
       id="#f3fc0bff">
      <path
         fill="#f3fc0b"
         opacity="1"
         d="m 334.38,273.35 c 1.58,0.3 3.16,0.6 4.75,0.9 0.06,1.98 0.1,3.97 0.15,5.96 -1.64,-0.2 -3.26,-0.39 -4.88,-0.57 -0.01,-2.1 -0.02,-4.2 -0.02,-6.29 z"
         id="path341" />
      <path
         fill="#f3fc0b"
         opacity="1"
         d="m 332.46,306.05 c 0.85,-4.89 2.2,-9.67 3.34,-14.49 1.62,0 3.25,0.01 4.88,0.02 -1.66,4.68 -3.55,9.28 -5.21,13.97 -0.75,0.12 -2.26,0.38 -3.01,0.5 z"
         id="path343" />
    </g>
    <g
       id="#8e8e8eff">
      <path
         fill="#8e8e8e"
         opacity="1"
         d="m 136.59,319.24 c 6.03,1.42 12.11,2.68 18.1,4.31 4.08,5.43 9.94,9.5 12.84,15.8 1.73,3.86 4.77,7 6.07,11.08 1.29,3.77 2.86,7.45 4.98,10.84 l 0.21,0.35 c -4.26,0.1 -8.54,0.13 -12.77,-0.5 l -0.1,-0.44 c -0.98,-5.38 -4.18,-9.98 -7.29,-14.35 -7.67,-9.22 -15.93,-18.1 -25.93,-24.84 1.26,-0.82 2.57,-1.55 3.89,-2.25 z"
         id="path346" />
    </g>
    <g
       id="#989898ff">
      <path
         fill="#989898"
         opacity="1"
         d="m 154.69,323.55 c 9.82,2.14 19.57,4.59 29.37,6.8 5.87,1.3 11.64,3.13 17.64,3.79 h 0.41 c 0.72,-0.06 2.15,-0.17 2.87,-0.22 -1.71,0.47 -3.68,0.68 -4.86,2.17 -7.15,8.42 -14.23,16.9 -21.54,25.18 -2.12,-3.39 -3.69,-7.07 -4.98,-10.84 -1.3,-4.08 -4.34,-7.22 -6.07,-11.08 -2.9,-6.3 -8.76,-10.37 -12.84,-15.8 z"
         id="path349" />
    </g>
  </g>
</svg>
